<svg height="100%" width="100%" viewBox="0 0 40 40" fill="none"
  xmlns="http://www.w3.org/2000/svg">
  <path
    d="M21.9979 20.027C21.9996 20.0085 21.9999 19.9909 22.0002 19.9723C22.0276 18.2934 24.5347 16.3026 26.7347 14H13.2651C15.4651 16.3027 17.9724 18.2934 17.9998 19.9723C18.0001 19.9909 18.0004 20.0085 18.0021 20.027C18.0237 20.2653 18.2413 22 20 22C21.7587 22 21.9763 20.2653 21.9979 20.027Z"
    fill="#FDE68A" />
  <path
    d="M11.0005 31.9408C10.4503 32.0041 10 32.449 10 33.0028C10 35.212 11.7909 37 14 37H26C28.2091 37 30 35.212 30 33.0028V32C26 32 22 29 20 29C18.167 29 14.6539 31.5201 11.0005 31.9408Z"
    fill="#FDE68A" />
  <path fill-rule="evenodd" clip-rule="evenodd"
    d="M14 4C12.3422 4 11 5.34123 11 6.99715V8C11 9.65282 12.1119 11.2924 13.6968 13H26.3029C27.888 11.2924 29 9.65283 29 8V6.99715C29 5.34123 27.6578 4 26 4H14ZM24.3243 15H15.6755C16.2095 15.5262 16.738 16.0524 17.2027 16.5646C17.6754 17.0855 18.1117 17.624 18.4331 18.1702C18.7444 18.6992 18.988 19.3022 18.9996 19.9517C19 19.9552 19.0004 19.9592 19.001 19.9636C19.0047 19.9936 19.0119 20.0426 19.025 20.104C19.0521 20.2312 19.0994 20.3876 19.1762 20.5332C19.3081 20.7831 19.5071 21 20 21C20.4929 21 20.6919 20.7831 20.8238 20.5332C20.9006 20.3876 20.9479 20.2312 20.975 20.104C20.9881 20.0426 20.9953 19.9936 20.999 19.9636C20.9996 19.9592 21 19.9552 21.0004 19.9517C21.012 19.3022 21.2555 18.6992 21.5669 18.1702C21.8883 17.6241 22.3246 17.0856 22.7971 16.5646C23.2618 16.0524 23.7903 15.5262 24.3243 15ZM21.8995 22.3402C21.4502 22.7228 20.8303 23 20 23C19.1697 23 18.5498 22.7228 18.1005 22.3402C17.9139 22.6017 17.7121 22.8517 17.5093 23.0883C16.9196 23.7762 16.1759 24.508 15.4332 25.2389C15.1892 25.4789 14.9454 25.7188 14.7071 25.9571C13.713 26.9512 12.7735 27.955 12.0821 28.9922C11.6456 29.6469 11.3286 30.2847 11.1544 30.9126C12.5626 30.7074 13.9867 30.1677 15.3561 29.5809C15.6357 29.461 15.9182 29.3369 16.198 29.2141C16.7552 28.9693 17.3014 28.7294 17.7919 28.5375C18.5162 28.2541 19.2952 28 20 28C20.7048 28 21.4838 28.2541 22.2081 28.5375C22.6986 28.7294 23.2448 28.9693 23.802 29.2141C24.0818 29.3369 24.3643 29.461 24.6439 29.5809C26.0133 30.1677 27.4374 30.7074 28.8456 30.9126C28.6714 30.2847 28.3544 29.6469 27.9179 28.9922C27.2265 27.955 26.287 26.9512 25.2929 25.9571C25.0546 25.7188 24.8108 25.4789 24.5668 25.2389C23.8241 24.508 23.0804 23.7762 22.4907 23.0883C22.2879 22.8517 22.0861 22.6017 21.8995 22.3402ZM29 32.9466C27.1334 32.7519 25.3464 32.0579 23.8561 31.4191C23.5344 31.2813 23.2315 31.1481 22.9434 31.0215C22.4133 30.7886 21.9334 30.5777 21.4794 30.4C20.7662 30.1209 20.2952 30 20 30C19.7048 30 19.2338 30.1209 18.5206 30.4C18.0666 30.5777 17.5867 30.7886 17.0566 31.0215C16.7685 31.1481 16.4656 31.2813 16.1439 31.4191C14.6536 32.0579 12.8666 32.7519 11 32.9466V33.0028C11 34.6588 12.3422 36 14 36H26C27.6578 36 29 34.6588 29 33.0028V32.9466ZM9 6.99715C9 4.2348 11.2395 2 14 2H26C28.7605 2 31 4.2348 31 6.99715V8C31 10.6322 29.1738 12.8947 27.4577 14.6908C26.9538 15.2182 26.4345 15.7293 25.9437 16.2123C25.8832 16.2719 25.823 16.331 25.7634 16.3898C25.2143 16.9307 24.7106 17.432 24.2784 17.9084C23.8439 18.3874 23.5113 18.8095 23.2905 19.1846C23.0675 19.5636 23 19.8255 23 20C23 20.3508 23.2615 20.9143 24.0093 21.7867C24.5388 22.4045 25.1929 23.0483 25.9164 23.7604C26.1721 24.0121 26.4365 24.2723 26.7071 24.5429C27.713 25.5488 28.7735 26.67 29.5821 27.8828C30.3916 29.0971 31 30.4784 31 32V33.0028C31 35.7652 28.7605 38 26 38H14C11.2395 38 9 35.7652 9 33.0028V32C9 30.4784 9.60844 29.0971 10.4179 27.8828C11.2265 26.67 12.287 25.5488 13.2929 24.5429C13.5635 24.2723 13.8279 24.0121 14.0836 23.7604C14.8071 23.0483 15.4612 22.4045 15.9907 21.7867C16.7385 20.9143 17 20.3508 17 20C17 19.8256 16.9325 19.5636 16.7094 19.1846C16.4887 18.8095 16.1561 18.3875 15.7215 17.9084C15.2893 17.432 14.7855 16.9307 14.2364 16.3898C14.1769 16.3312 14.1169 16.2721 14.0565 16.2127C13.5656 15.7296 13.0461 15.2184 12.5421 14.6908C10.826 12.8947 9 10.6321 9 8V6.99715Z"
    fill="#111827" />
</svg>